Coordinates
version=1
nRows=32
nColumns=38
inDegrees=no

Units are S.I. units (second, meters, Newtons, ...)
If the header above contains a line with 'inDegrees', this indicates whether rotational values are in degrees (yes) or radians (no).

endheader
time	pelvis_tilt	pelvis_list	pelvis_rotation	pelvis_tx	pelvis_ty	pelvis_tz	hip_flexion_r	hip_adduction_r	hip_rotation_r	knee_angle_r	ankle_angle_r	subtalar_angle_r	mtp_angle_r	hip_flexion_l	hip_adduction_l	hip_rotation_l	knee_angle_l	ankle_angle_l	subtalar_angle_l	mtp_angle_l	lumbar_extension	lumbar_bending	lumbar_rotation	arm_flex_r	arm_add_r	arm_rot_r	elbow_flex_r	pro_sup_r	wrist_flex_r	wrist_dev_r	arm_flex_l	arm_add_l	arm_rot_l	elbow_flex_l	pro_sup_l	wrist_flex_l	wrist_dev_l
5.51	-0.128265	1.44714	1.5861	0.614244	1.65846	1.03001	0.210735	-0.0881101	0.0831711	1.07845	-0.451808	0	0	0.31952	-0.0189144	-0.224612	0.280155	-0.488749	0	0	0.128618	-0.165353	0.192785	0.40658	-0.461742	0.614289	1.35674	1.5708	0	0	0.514445	-0.294561	0.814739	1.28218	1.5708	0	0
5.52	-0.11231	1.44898	1.57055	0.612972	1.66317	1.03061	0.226384	-0.0846795	0.0855662	1.1036	-0.447945	0	0	0.313016	-0.019032	-0.226047	0.28062	-0.484952	0	0	0.124388	-0.164413	0.189034	0.410454	-0.461525	0.61726	1.35354	1.5708	0	0	0.515847	-0.29441	0.814955	1.28139	1.5708	0	0
5.53	-0.0933738	1.45096	1.5523	0.611778	1.66779	1.03127	0.240778	-0.0807169	0.0869804	1.12593	-0.433557	0	0	0.306358	-0.0196155	-0.227353	0.280647	-0.481594	0	0	0.119885	-0.16287	0.185135	0.414616	-0.461217	0.620353	1.3502	1.5708	0	0	0.51727	-0.29396	0.814692	1.28015	1.5708	0	0
5.54	-0.0712748	1.45282	1.53132	0.610634	1.67234	1.03198	0.254555	-0.0766542	0.0871235	1.14527	-0.413174	0	0	0.300091	-0.0208974	-0.228674	0.281209	-0.478637	0	0	0.115298	-0.160779	0.181074	0.418744	-0.460915	0.623253	1.34698	1.5708	0	0	0.518897	-0.293317	0.814546	1.27837	1.5708	0	0
5.55	-0.0459846	1.45441	1.50741	0.609567	1.67675	1.03272	0.26811	-0.0724413	0.0864934	1.16155	-0.391743	0	0	0.293891	-0.0226331	-0.229568	0.281288	-0.476055	0	0	0.110592	-0.158204	0.176799	0.423243	-0.460483	0.626168	1.3437	1.5708	0	0	0.520752	-0.292749	0.814254	1.2764	1.5708	0	0
5.56	-0.0181121	1.45577	1.4811	0.608538	1.68108	1.03349	0.281115	-0.0681782	0.0854218	1.174	-0.375194	0	0	0.287475	-0.024616	-0.229848	0.280493	-0.474186	0	0	0.105998	-0.155203	0.172663	0.427598	-0.460065	0.628852	1.34045	1.5708	0	0	0.522679	-0.292033	0.814059	1.27419	1.5708	0	0
5.57	0.0098533	1.45705	1.4546	0.607526	1.68532	1.03427	0.29347	-0.0641666	0.0843161	1.18271	-0.360981	0	0	0.280759	-0.0263288	-0.229994	0.27873	-0.47253	0	0	0.101358	-0.152183	0.168838	0.431945	-0.459769	0.63155	1.33727	1.5708	0	0	0.524553	-0.29109	0.813639	1.27184	1.5708	0	0
5.58	0.0374348	1.4581	1.42867	0.606538	1.68947	1.03506	0.305163	-0.0604615	0.082904	1.18749	-0.349773	0	0	0.27413	-0.0277913	-0.230203	0.276568	-0.471185	0	0	0.0968573	-0.149242	0.165097	0.436135	-0.45948	0.634166	1.33408	1.5708	0	0	0.526459	-0.289889	0.813099	1.26905	1.5708	0	0
5.59	0.0618961	1.45853	1.40586	0.605606	1.69355	1.03582	0.316621	-0.0571895	0.0814285	1.18856	-0.339733	0	0	0.268056	-0.0289276	-0.230608	0.274223	-0.470018	0	0	0.0931143	-0.146618	0.161686	0.440021	-0.459228	0.636738	1.33095	1.5708	0	0	0.528375	-0.288627	0.812917	1.26605	1.5708	0	0
5.6	0.0804192	1.45832	1.38887	0.604722	1.69757	1.03648	0.327803	-0.0544215	0.079747	1.18618	-0.328101	0	0	0.262675	-0.0293826	-0.23126	0.271739	-0.468909	0	0	0.0903262	-0.144633	0.158641	0.443499	-0.458956	0.639118	1.32805	1.5708	0	0	0.530193	-0.287496	0.812947	1.26325	1.5708	0	0
5.61	0.0941579	1.45796	1.37628	0.603875	1.70147	1.03707	0.338583	-0.0518926	0.0787846	1.1812	-0.314674	0	0	0.25732	-0.0291843	-0.232569	0.268648	-0.468001	0	0	0.0877999	-0.143136	0.156071	0.447146	-0.458849	0.641671	1.32533	1.5708	0	0	0.532062	-0.286402	0.812887	1.26067	1.5708	0	0
5.62	0.104371	1.45747	1.36678	0.603074	1.70523	1.0376	0.349304	-0.0499043	0.0783619	1.17376	-0.301742	0	0	0.25203	-0.028832	-0.233687	0.26518	-0.467193	0	0	0.0853909	-0.141902	0.153825	0.451304	-0.45893	0.644578	1.32253	1.5708	0	0	0.534187	-0.285422	0.812862	1.25822	1.5708	0	0
5.63	0.112435	1.45677	1.35939	0.602287	1.70887	1.03807	0.359499	-0.0483067	0.0776076	1.16334	-0.290352	0	0	0.247287	-0.0282973	-0.234199	0.261846	-0.466585	0	0	0.0831408	-0.140656	0.151499	0.456022	-0.459158	0.648052	1.31964	1.5708	0	0	0.536461	-0.28441	0.812847	1.2556	1.5708	0	0
5.64	0.11861	1.45576	1.35396	0.601534	1.71242	1.03849	0.369012	-0.0471496	0.0763244	1.14993	-0.279555	0	0	0.243065	-0.0275834	-0.23411	0.258609	-0.466027	0	0	0.081336	-0.139401	0.149078	0.461178	-0.459404	0.652157	1.3163	1.5708	0	0	0.538576	-0.283293	0.81259	1.25277	1.5708	0	0
5.65	0.122877	1.45434	1.35021	0.600898	1.71583	1.03884	0.378316	-0.0462312	0.0754875	1.13424	-0.26864	0	0	0.239483	-0.0268465	-0.233451	0.25534	-0.465493	0	0	0.0799576	-0.138251	0.146752	0.466734	-0.459393	0.656677	1.31272	1.5708	0	0	0.540777	-0.282526	0.812302	1.25016	1.5708	0	0
5.66	0.127502	1.45249	1.346	0.600398	1.71905	1.03915	0.387212	-0.0449281	0.0748537	1.11618	-0.257468	0	0	0.236672	-0.0264381	-0.232237	0.252354	-0.465021	0	0	0.078736	-0.136945	0.144394	0.472699	-0.459254	0.661345	1.30915	1.5708	0	0	0.543296	-0.281999	0.811945	1.24762	1.5708	0	0
5.67	0.132632	1.4502	1.34147	0.59996	1.7222	1.03942	0.395384	-0.0436267	0.0733961	1.09535	-0.246277	0	0	0.234432	-0.0262281	-0.231223	0.249559	-0.464558	0	0	0.0779266	-0.135432	0.14191	0.478703	-0.459155	0.666047	1.30562	1.5708	0	0	0.546135	-0.281482	0.811937	1.24486	1.5708	0	0
5.68	0.136754	1.44799	1.33825	0.599573	1.7253	1.03965	0.402602	-0.0428264	0.070981	1.07265	-0.23557	0	0	0.23214	-0.0259675	-0.230367	0.246811	-0.463979	0	0	0.0771542	-0.13417	0.139293	0.484577	-0.458727	0.670244	1.30187	1.5708	0	0	0.549442	-0.281103	0.812507	1.24216	1.5708	0	0
5.69	0.138444	1.44621	1.33803	0.599218	1.72837	1.03984	0.408702	-0.0428623	0.0673012	1.04887	-0.226053	0	0	0.229584	-0.0251895	-0.229546	0.243904	-0.463354	0	0	0.0761587	-0.133447	0.136572	0.490048	-0.458144	0.673721	1.2983	1.5708	0	0	0.553259	-0.280712	0.813651	1.23933	1.5708	0	0
5.7	0.137725	1.44412	1.34021	0.598951	1.73137	1.03996	0.414314	-0.0427496	0.0643355	1.02324	-0.217973	0	0	0.227564	-0.024391	-0.228227	0.241295	-0.462512	0	0	0.0758029	-0.132919	0.134325	0.494983	-0.457417	0.676717	1.29475	1.5708	0	0	0.557114	-0.280142	0.814983	1.23613	1.5708	0	0
5.71	0.136312	1.44189	1.34302	0.59878	1.7343	1.04003	0.41924	-0.0420508	0.0620856	0.996013	-0.210838	0	0	0.225692	-0.0237111	-0.226186	0.23885	-0.461639	0	0	0.075796	-0.132425	0.132454	0.499457	-0.456601	0.679422	1.2914	1.5708	0	0	0.561084	-0.279635	0.816619	1.2328	1.5708	0	0
5.72	0.135071	1.4403	1.34599	0.598675	1.73722	1.04008	0.423092	-0.0414923	0.059225	0.968311	-0.204756	0	0	0.223319	-0.0228406	-0.224467	0.236588	-0.460645	0	0	0.0753414	-0.132257	0.130619	0.503444	-0.45569	0.681457	1.28821	1.5708	0	0	0.565305	-0.279054	0.818659	1.22913	1.5708	0	0
5.73	0.134102	1.43908	1.34894	0.598616	1.74011	1.04014	0.426296	-0.0409571	0.0558755	0.94047	-0.200072	0	0	0.220683	-0.0220235	-0.22265	0.2342	-0.459606	0	0	0.0746613	-0.132197	0.128844	0.507329	-0.454988	0.683439	1.28509	1.5708	0	0	0.569832	-0.278453	0.82108	1.2252	1.5708	0	0
5.74	0.132937	1.43786	1.35214	0.598619	1.74295	1.04019	0.429267	-0.0402809	0.0523997	0.912349	-0.19697	0	0	0.218216	-0.0214203	-0.2208	0.232341	-0.458506	0	0	0.0740935	-0.13207	0.127203	0.511205	-0.454277	0.685304	1.28184	1.5708	0	0	0.574552	-0.277831	0.823828	1.22095	1.5708	0	0
5.75	0.13114	1.43654	1.35567	0.598705	1.74568	1.04024	0.432274	-0.0393004	0.0496057	0.884213	-0.195626	0	0	0.215857	-0.0210074	-0.219105	0.230412	-0.45754	0	0	0.0735699	-0.131796	0.125904	0.515121	-0.453408	0.686996	1.27872	1.5708	0	0	0.579336	-0.277301	0.826522	1.21668	1.5708	0	0
5.76	0.129827	1.43504	1.3585	0.598855	1.74831	1.04029	0.435382	-0.0379811	0.0468952	0.856748	-0.19511	0	0	0.213828	-0.0208253	-0.217861	0.228484	-0.456937	0	0	0.0731334	-0.131149	0.124876	0.519172	-0.452637	0.688834	1.27572	1.5708	0	0	0.584151	-0.276859	0.829136	1.21248	1.5708	0	0
5.77	0.128475	1.4335	1.36138	0.599106	1.75088	1.04032	0.438177	-0.0365172	0.0429946	0.829978	-0.194647	0	0	0.211708	-0.0208086	-0.216776	0.226344	-0.456421	0	0	0.0727541	-0.1305	0.123897	0.523083	-0.451428	0.690178	1.27252	1.5708	0	0	0.588985	-0.276455	0.831624	1.20812	1.5708	0	0
5.78	0.127389	1.43188	1.36365	0.599469	1.7534	1.04038	0.440677	-0.0345595	0.0388186	0.803704	-0.194092	0	0	0.209287	-0.0209186	-0.215928	0.223569	-0.455953	0	0	0.0724319	-0.129652	0.123219	0.527197	-0.450068	0.691636	1.26913	1.5708	0	0	0.593864	-0.276073	0.834044	1.20363	1.5708	0	0
5.79	0.125351	1.4301	1.36644	0.599923	1.75585	1.04044	0.443315	-0.0326059	0.0356749	0.778004	-0.194315	0	0	0.206695	-0.0209822	-0.215476	0.220246	-0.45537	0	0	0.0724031	-0.128769	0.123065	0.531384	-0.448674	0.693097	1.26557	1.5708	0	0	0.598668	-0.275395	0.836089	1.19894	1.5708	0	0
5.8	0.122457	1.42811	1.36986	0.60048	1.75826	1.04048	0.445888	-0.0305826	0.0330339	0.752773	-0.194567	0	0	0.204248	-0.0210076	-0.215423	0.216881	-0.454619	0	0	0.0727856	-0.127956	0.123139	0.535578	-0.446955	0.694489	1.26176	1.5708	0	0	0.603297	-0.274734	0.8377	1.19441	1.5708	0	0
5.81	0.120318	1.42593	1.37232	0.601127	1.76063	1.0405	0.448447	-0.0286342	0.029935	0.728299	-0.195063	0	0	0.202134	-0.0211949	-0.216147	0.213653	-0.453829	0	0	0.0733516	-0.126911	0.123106	0.54013	-0.445024	0.696213	1.25792	1.5708	0	0	0.607492	-0.274251	0.838634	1.19005	1.5708	0	0
5.82	0.118664	1.42367	1.374	0.601834	1.76293	1.04055	0.451222	-0.0268808	0.0259549	0.705206	-0.195791	0	0	0.200303	-0.0215645	-0.217152	0.210794	-0.453207	0	0	0.0738885	-0.125586	0.123029	0.54515	-0.442988	0.698557	1.25392	1.5708	0	0	0.611278	-0.274026	0.83914	1.18581	1.5708	0	0
